<?xml version="1.0" encoding="UTF-8" standalone="no"?>
<!DOCTYPE svg PUBLIC "-//W3C//DTD SVG 1.1//EN"
 "http://www.w3.org/Graphics/SVG/1.1/DTD/svg11.dtd">
<!-- Generated by graphviz version 7.1.0 (20230121.1956)
 -->
<!-- Title: G Pages: 1 -->
<svg width="348pt" height="627pt"
 viewBox="0.00 0.00 261.00 470.00" xmlns="http://www.w3.org/2000/svg" xmlns:xlink="http://www.w3.org/1999/xlink">
<g id="graph0" class="graph" transform="scale(1.33333 1.33333) rotate(0) translate(4 466)">
<title>G</title>
<polygon fill="white" stroke="none" points="-4,4 -4,-466 257,-466 257,4 -4,4"/>
<!-- 2633976794080 -->
<g id="node1" class="node">
<title>2633976794080</title>
<polygon fill="none" stroke="black" points="0,-415.5 0,-461.5 253,-461.5 253,-415.5 0,-415.5"/>
<text text-anchor="middle" x="52.5" y="-446.3" font-family="Times New Roman,serif" font-size="14.00">dense_15_input</text>
<polyline fill="none" stroke="black" points="0,-438.5 105,-438.5"/>
<text text-anchor="middle" x="52.5" y="-423.3" font-family="Times New Roman,serif" font-size="14.00">InputLayer</text>
<polyline fill="none" stroke="black" points="105,-415.5 105,-461.5"/>
<text text-anchor="middle" x="133" y="-446.3" font-family="Times New Roman,serif" font-size="14.00">input:</text>
<polyline fill="none" stroke="black" points="105,-438.5 161,-438.5"/>
<text text-anchor="middle" x="133" y="-423.3" font-family="Times New Roman,serif" font-size="14.00">output:</text>
<polyline fill="none" stroke="black" points="161,-415.5 161,-461.5"/>
<text text-anchor="middle" x="207" y="-446.3" font-family="Times New Roman,serif" font-size="14.00">[(None, 140)]</text>
<polyline fill="none" stroke="black" points="161,-438.5 253,-438.5"/>
<text text-anchor="middle" x="207" y="-423.3" font-family="Times New Roman,serif" font-size="14.00">[(None, 140)]</text>
</g>
<!-- 2633656063600 -->
<g id="node2" class="node">
<title>2633656063600</title>
<polygon fill="none" stroke="black" points="22,-332.5 22,-378.5 231,-378.5 231,-332.5 22,-332.5"/>
<text text-anchor="middle" x="57" y="-363.3" font-family="Times New Roman,serif" font-size="14.00">dense_15</text>
<polyline fill="none" stroke="black" points="22,-355.5 92,-355.5"/>
<text text-anchor="middle" x="57" y="-340.3" font-family="Times New Roman,serif" font-size="14.00">Dense</text>
<polyline fill="none" stroke="black" points="92,-332.5 92,-378.5"/>
<text text-anchor="middle" x="120" y="-363.3" font-family="Times New Roman,serif" font-size="14.00">input:</text>
<polyline fill="none" stroke="black" points="92,-355.5 148,-355.5"/>
<text text-anchor="middle" x="120" y="-340.3" font-family="Times New Roman,serif" font-size="14.00">output:</text>
<polyline fill="none" stroke="black" points="148,-332.5 148,-378.5"/>
<text text-anchor="middle" x="189.5" y="-363.3" font-family="Times New Roman,serif" font-size="14.00">(None, 140)</text>
<polyline fill="none" stroke="black" points="148,-355.5 231,-355.5"/>
<text text-anchor="middle" x="189.5" y="-340.3" font-family="Times New Roman,serif" font-size="14.00">(None, 140)</text>
</g>
<!-- 2633976794080&#45;&gt;2633656063600 -->
<g id="edge1" class="edge">
<title>2633976794080&#45;&gt;2633656063600</title>
<path fill="none" stroke="black" d="M126.5,-415.79C126.5,-407.71 126.5,-398.35 126.5,-389.48"/>
<polygon fill="black" stroke="black" points="130,-389.78 126.5,-379.78 123,-389.78 130,-389.78"/>
</g>
<!-- 2633656065904 -->
<g id="node3" class="node">
<title>2633656065904</title>
<polygon fill="none" stroke="black" points="22,-249.5 22,-295.5 231,-295.5 231,-249.5 22,-249.5"/>
<text text-anchor="middle" x="57" y="-280.3" font-family="Times New Roman,serif" font-size="14.00">dense_16</text>
<polyline fill="none" stroke="black" points="22,-272.5 92,-272.5"/>
<text text-anchor="middle" x="57" y="-257.3" font-family="Times New Roman,serif" font-size="14.00">Dense</text>
<polyline fill="none" stroke="black" points="92,-249.5 92,-295.5"/>
<text text-anchor="middle" x="120" y="-280.3" font-family="Times New Roman,serif" font-size="14.00">input:</text>
<polyline fill="none" stroke="black" points="92,-272.5 148,-272.5"/>
<text text-anchor="middle" x="120" y="-257.3" font-family="Times New Roman,serif" font-size="14.00">output:</text>
<polyline fill="none" stroke="black" points="148,-249.5 148,-295.5"/>
<text text-anchor="middle" x="189.5" y="-280.3" font-family="Times New Roman,serif" font-size="14.00">(None, 140)</text>
<polyline fill="none" stroke="black" points="148,-272.5 231,-272.5"/>
<text text-anchor="middle" x="189.5" y="-257.3" font-family="Times New Roman,serif" font-size="14.00">(None, 64)</text>
</g>
<!-- 2633656063600&#45;&gt;2633656065904 -->
<g id="edge2" class="edge">
<title>2633656063600&#45;&gt;2633656065904</title>
<path fill="none" stroke="black" d="M126.5,-332.79C126.5,-324.71 126.5,-315.35 126.5,-306.48"/>
<polygon fill="black" stroke="black" points="130,-306.78 126.5,-296.78 123,-306.78 130,-306.78"/>
</g>
<!-- 2633655923856 -->
<g id="node4" class="node">
<title>2633655923856</title>
<polygon fill="none" stroke="black" points="25,-166.5 25,-212.5 228,-212.5 228,-166.5 25,-166.5"/>
<text text-anchor="middle" x="60" y="-197.3" font-family="Times New Roman,serif" font-size="14.00">dense_17</text>
<polyline fill="none" stroke="black" points="25,-189.5 95,-189.5"/>
<text text-anchor="middle" x="60" y="-174.3" font-family="Times New Roman,serif" font-size="14.00">Dense</text>
<polyline fill="none" stroke="black" points="95,-166.5 95,-212.5"/>
<text text-anchor="middle" x="123" y="-197.3" font-family="Times New Roman,serif" font-size="14.00">input:</text>
<polyline fill="none" stroke="black" points="95,-189.5 151,-189.5"/>
<text text-anchor="middle" x="123" y="-174.3" font-family="Times New Roman,serif" font-size="14.00">output:</text>
<polyline fill="none" stroke="black" points="151,-166.5 151,-212.5"/>
<text text-anchor="middle" x="189.5" y="-197.3" font-family="Times New Roman,serif" font-size="14.00">(None, 64)</text>
<polyline fill="none" stroke="black" points="151,-189.5 228,-189.5"/>
<text text-anchor="middle" x="189.5" y="-174.3" font-family="Times New Roman,serif" font-size="14.00">(None, 32)</text>
</g>
<!-- 2633656065904&#45;&gt;2633655923856 -->
<g id="edge3" class="edge">
<title>2633656065904&#45;&gt;2633655923856</title>
<path fill="none" stroke="black" d="M126.5,-249.79C126.5,-241.71 126.5,-232.35 126.5,-223.48"/>
<polygon fill="black" stroke="black" points="130,-223.78 126.5,-213.78 123,-223.78 130,-223.78"/>
</g>
<!-- 2633655923184 -->
<g id="node5" class="node">
<title>2633655923184</title>
<polygon fill="none" stroke="black" points="25,-83.5 25,-129.5 228,-129.5 228,-83.5 25,-83.5"/>
<text text-anchor="middle" x="60" y="-114.3" font-family="Times New Roman,serif" font-size="14.00">dense_18</text>
<polyline fill="none" stroke="black" points="25,-106.5 95,-106.5"/>
<text text-anchor="middle" x="60" y="-91.3" font-family="Times New Roman,serif" font-size="14.00">Dense</text>
<polyline fill="none" stroke="black" points="95,-83.5 95,-129.5"/>
<text text-anchor="middle" x="123" y="-114.3" font-family="Times New Roman,serif" font-size="14.00">input:</text>
<polyline fill="none" stroke="black" points="95,-106.5 151,-106.5"/>
<text text-anchor="middle" x="123" y="-91.3" font-family="Times New Roman,serif" font-size="14.00">output:</text>
<polyline fill="none" stroke="black" points="151,-83.5 151,-129.5"/>
<text text-anchor="middle" x="189.5" y="-114.3" font-family="Times New Roman,serif" font-size="14.00">(None, 32)</text>
<polyline fill="none" stroke="black" points="151,-106.5 228,-106.5"/>
<text text-anchor="middle" x="189.5" y="-91.3" font-family="Times New Roman,serif" font-size="14.00">(None, 16)</text>
</g>
<!-- 2633655923856&#45;&gt;2633655923184 -->
<g id="edge4" class="edge">
<title>2633655923856&#45;&gt;2633655923184</title>
<path fill="none" stroke="black" d="M126.5,-166.79C126.5,-158.71 126.5,-149.35 126.5,-140.48"/>
<polygon fill="black" stroke="black" points="130,-140.78 126.5,-130.78 123,-140.78 130,-140.78"/>
</g>
<!-- 2633655925632 -->
<g id="node6" class="node">
<title>2633655925632</title>
<polygon fill="none" stroke="black" points="25,-0.5 25,-46.5 228,-46.5 228,-0.5 25,-0.5"/>
<text text-anchor="middle" x="60" y="-31.3" font-family="Times New Roman,serif" font-size="14.00">dense_19</text>
<polyline fill="none" stroke="black" points="25,-23.5 95,-23.5"/>
<text text-anchor="middle" x="60" y="-8.3" font-family="Times New Roman,serif" font-size="14.00">Dense</text>
<polyline fill="none" stroke="black" points="95,-0.5 95,-46.5"/>
<text text-anchor="middle" x="123" y="-31.3" font-family="Times New Roman,serif" font-size="14.00">input:</text>
<polyline fill="none" stroke="black" points="95,-23.5 151,-23.5"/>
<text text-anchor="middle" x="123" y="-8.3" font-family="Times New Roman,serif" font-size="14.00">output:</text>
<polyline fill="none" stroke="black" points="151,-0.5 151,-46.5"/>
<text text-anchor="middle" x="189.5" y="-31.3" font-family="Times New Roman,serif" font-size="14.00">(None, 16)</text>
<polyline fill="none" stroke="black" points="151,-23.5 228,-23.5"/>
<text text-anchor="middle" x="189.5" y="-8.3" font-family="Times New Roman,serif" font-size="14.00">(None, 8)</text>
</g>
<!-- 2633655923184&#45;&gt;2633655925632 -->
<g id="edge5" class="edge">
<title>2633655923184&#45;&gt;2633655925632</title>
<path fill="none" stroke="black" d="M126.5,-83.79C126.5,-75.71 126.5,-66.35 126.5,-57.48"/>
<polygon fill="black" stroke="black" points="130,-57.78 126.5,-47.78 123,-57.78 130,-57.78"/>
</g>
</g>
</svg>
